<svg width="1600" height="240" viewBox="0 0 1600 240" fill="none" xmlns="http://www.w3.org/2000/svg">
<g clip-path="url(#clip0_30_18)">
<g clip-path="url(#clip1_30_18)">
<path d="M35.7614 10.4348C29.5244 11.8202 24.3119 14.8318 19.5814 19.7106C15.2125 24.2582 12.4406 29.0467 10.8135 34.9495C10.1205 37.4793 10.0301 38.4129 10 42.3581C10 45.7914 10.1205 47.3575 10.5423 48.8332C12.2899 55.2178 17.1107 60.4882 23.1669 62.5963C24.6433 63.1083 26.3306 63.4396 28.3795 63.5601L31.3925 63.7408L29.5244 64.7346C25.969 66.5717 20.8469 66.7223 17.171 65.096C16.4177 64.7647 15.7248 64.5539 15.6645 64.6141C15.4536 64.8249 17.412 68.4991 18.9487 70.7278C20.7565 73.3479 25.2761 77.7449 27.9275 79.4916C32.5676 82.5334 37.9006 84.4307 43.0228 84.8222C45.2524 85.0029 48.1449 84.7921 51.4291 84.2199L52.4837 84.0091L51.4291 84.9427C48.8078 87.2616 41.6971 89.7613 38.7744 89.3698L37.4186 89.1891L38.2622 89.942C40.6726 92.0803 46.4576 94.7004 51.4894 95.9351C54.412 96.6579 62.6979 97.5915 63.0594 97.2603C63.1498 97.1699 63.0594 95.9653 62.8786 94.5799C62.728 93.1946 62.5773 91.2671 62.5773 90.3034V88.5566L59.7752 85.033C52.6946 76.1186 49.5309 71.4204 46.8795 65.8489C43.6856 59.1028 41.8778 52.0255 42.149 47.2972C42.4804 41.7859 45.5839 37.9913 49.8021 37.9913C51.4894 37.9913 52.7549 38.7141 54.2312 40.4909C57.7565 44.7976 60.7394 53.5012 62.3966 64.313C63.4511 71.0289 63.7524 74.8838 63.9633 83.6176C64.2044 95.122 65.048 99.8202 67.9707 105.934C70.2606 110.722 72.7011 114.156 76.9796 118.522C83.8493 125.54 94.2744 132.045 104.609 135.809C114.251 139.303 118.529 139.303 128.111 135.719C134.92 133.189 142.814 128.852 148.539 124.516C152.426 121.564 157.668 116.354 160.29 112.83C163.936 107.921 167.099 100.724 168.033 95.122C168.214 94.098 168.485 89.5806 168.636 85.1234C168.967 75.4259 169.359 70.3362 170.173 64.6442C172.101 51.122 175.927 41.3342 180.296 38.6839C183.249 36.9071 187.558 38.7743 189.426 42.6894C191.806 47.5683 190.209 56.5731 185.208 66.6018C182.315 72.4143 180.809 74.673 174.059 83.467L170.233 88.4362L170.022 91.5984C169.901 93.3451 169.69 95.2726 169.57 95.905C169.419 96.5375 169.419 97.0796 169.57 97.2C169.721 97.2904 171.649 97.2 173.818 97.0494C180.809 96.4772 186.955 94.6401 192.198 91.508L195.301 89.6408L192.891 89.43C188.733 89.0385 183.008 86.9002 180.537 84.7921L179.633 84.0392L180.537 84.1898C185.961 85.1836 189.968 85.1234 194.608 83.9488C201.418 82.2322 207.866 78.0159 212.445 72.2637C214.765 69.4026 217.598 64.2527 216.664 64.6442C214.102 65.6682 212.445 66.0898 210.186 66.2404C207.112 66.4211 205.094 65.9995 202.532 64.6744L200.725 63.7408L204.19 63.5601C208.016 63.3492 209.764 62.8373 212.747 61.0303C217.387 58.2596 220.822 53.4711 222.147 48.0803C222.78 45.5505 222.84 39.9187 222.298 37.2384C220.49 28.4143 214.675 19.9516 206.871 14.8017C202.261 11.7599 197.772 10.3143 192.288 10.0734C187.076 9.8626 183.309 10.7661 178.94 13.326C176.56 14.7415 172.643 18.7469 171.197 21.2767C170.233 22.9331 169.962 23.2343 169.901 22.6922C169.63 20.9153 171.589 15.7353 173.788 12.4526L174.451 11.4588L172.673 12.3924C164.719 16.699 159.928 22.1802 157.638 29.7093C157.186 31.185 156.704 32.6908 156.554 33.0221C156.132 34.0159 156.614 29.5888 157.186 27.3301C157.699 25.3123 157.699 25.2822 157.126 25.9748C154.535 29.2575 152.546 33.0522 151.612 36.3951C151.311 37.4492 151.04 38.2924 150.98 38.2924C150.949 38.2924 149.895 37.7503 148.66 37.0878C142.151 33.5642 132.932 30.8537 124.194 29.8599C120.126 29.4081 111.057 29.4985 106.959 30.0104C99.0048 31.0645 91.653 33.2028 85.4763 36.2746C83.3974 37.2986 81.6197 38.172 81.4991 38.2322C81.3485 38.2924 81.2581 38.0214 81.2581 37.5998C81.2581 35.7627 78.7573 30.3116 76.4975 27.2096C75.7443 26.1857 75.0814 25.3424 75.0513 25.3424C75.0211 25.3424 75.1718 25.9146 75.3827 26.6374C75.5936 27.3602 75.8648 29.1371 75.9552 30.6429L76.1661 33.3232L75.1417 30.0707C74.5692 28.2938 73.6653 25.9447 73.0928 24.8304C71.0138 20.7045 65.1083 15.133 60.0464 12.5128C58.57 11.7298 58.0578 11.5792 58.3892 11.9707C60.197 14.109 62.5773 20.2226 62.5773 22.7524C62.5773 23.5655 62.3966 23.3848 61.0407 21.1863C58.0578 16.3376 53.8697 12.9947 48.4161 11.0673C46.1563 10.2842 45.3729 10.1638 41.7874 10.1035C39.0155 10.0132 37.0871 10.1336 35.7614 10.4348ZM97.0765 67.8065C106.357 70.005 112.985 75.968 114.733 83.7079C115.185 85.7859 115.094 91.3876 114.552 94.3089C113.859 97.9529 112.503 102.531 110.605 107.47C108.225 113.764 108.134 113.915 106.628 114.427C105.091 114.939 103.675 116.264 103.404 117.498C103.072 119.034 104.006 121.594 105.453 123.01C107.863 125.419 111.238 126.533 116.119 126.533C119.162 126.533 121.844 125.991 123.832 124.997C126.664 123.552 129.165 120.209 129.165 117.83C129.165 116.535 127.538 114.908 125.73 114.427L124.465 114.095L122.597 109.096C120.337 103.012 118.77 97.8626 118.138 94.1884C117.535 90.6648 117.535 85.3944 118.168 83.0152C119.915 76.239 125.339 70.9988 133.383 68.2582C137.782 66.7524 143.176 66.5717 146.008 67.8366C149.865 69.5231 153.932 74.9139 155.981 81.0577C156.915 83.7983 157.126 88.9482 156.463 91.5984C154.023 101.206 144.743 108.403 135.643 107.741C134.318 107.65 132.932 107.5 132.57 107.379L131.877 107.199L132.359 108.494C133.022 110.331 133.263 115.21 132.781 117.227C131.124 124.305 125.098 128.401 116.36 128.431C112.533 128.431 110.183 127.919 106.959 126.383C100.783 123.492 98.1311 116.836 100.09 109.066C100.331 108.162 100.481 107.379 100.421 107.319C100.361 107.259 99.4568 107.379 98.4324 107.59C94.6359 108.343 89.6645 107.349 85.8379 105.091C83.6083 103.796 79.8721 100.061 78.4861 97.7722C77.1303 95.5135 75.9552 92.0501 75.684 89.4902C75.2622 85.2438 76.7687 79.3109 79.3599 74.944C81.0773 72.1131 84.241 68.7401 85.9283 67.957C88.4291 66.8126 92.6172 66.7524 97.0765 67.8065Z" fill="#010101"/>
<path d="M89.9356 75.0043C87.4951 75.7873 85.868 76.8414 84.0301 78.7688C81.0472 81.931 79.6009 86.6292 80.2638 91.0262C81.4991 98.8865 89.785 105.03 97.4079 103.735C104.94 102.44 110.033 95.5135 108.978 88.0446C108.044 81.2986 103.886 76.5101 97.6188 74.8838C95.3289 74.2815 92.0447 74.3417 89.9356 75.0043ZM102.952 82.4731C104.308 83.7079 104.458 85.1836 103.374 86.4485C102.289 87.7435 101.325 88.1049 100.09 87.6832C98.7638 87.2315 98.1009 86.4485 97.9201 85.0029C97.7695 83.9187 97.8599 83.6778 98.824 82.7141C100.18 81.3588 101.596 81.2685 102.952 82.4731Z" fill="#010101"/>
<path d="M134.8 74.8838C128.05 76.7209 123.742 82.7441 123.742 90.2732C123.742 94.4293 125.037 97.5012 127.99 100.332C133.474 105.572 142.001 105.03 147.997 98.9769C150.528 96.4471 151.883 93.8571 152.366 90.7551C153.51 83.5272 148.78 76.3595 141.82 74.7633C139.982 74.3417 136.577 74.4019 134.8 74.8838ZM133.805 82.5032C134.227 82.9851 134.679 83.8584 134.769 84.4307C134.92 85.304 134.8 85.6654 133.986 86.5689C133.173 87.5326 132.841 87.6832 131.726 87.6832C129.527 87.6832 128.081 85.6955 128.864 83.738C129.768 81.5997 132.299 80.9372 133.805 82.5032Z" fill="#010101"/>
<path d="M199.218 84.4006C197.109 85.2438 193.041 86.2678 190.179 86.6593C188.703 86.8701 188.703 86.8701 189.576 87.1412C190.721 87.5026 196.476 87.5929 199.218 87.2616L201.327 87.0508L199.971 88.2555C196.778 91.1165 190.993 94.61 186.925 96.1158C182.285 97.8325 176.892 98.8263 172.252 98.8263H169.058L168.244 101.326C166.015 108.192 161.887 114.577 155.77 120.6C153.269 123.07 147.274 127.919 145.255 129.123C144.743 129.425 144.803 129.605 145.978 131.563C148.147 135.237 150.799 140.688 152.335 144.603C158.06 159.36 158.633 173.274 154.023 187.218C150.678 197.397 145.918 204.866 136.969 214.021C131.998 219.111 130.973 220.436 130.973 221.791C130.973 222.424 131.094 222.364 132.449 221.069C133.956 219.623 135.975 218.388 136.818 218.388C137.451 218.388 138.204 219.232 138.204 219.894C138.204 220.225 137.15 221.49 135.884 222.755C133.293 225.255 132.419 225.556 131.244 224.321L130.612 223.659L130.822 224.412C132.088 228.628 136.457 230.615 142.844 229.832C147.002 229.351 149.895 228.447 154.173 226.339C174.21 216.431 189.245 196.313 191.987 175.653C193.614 163.486 190.661 149.301 183.761 136.321L182.315 133.611L184.695 130.75C188.19 126.533 190.993 122.166 193.493 117.077C197.892 108.132 200.092 100.272 201.327 89.0987C201.839 84.3705 201.87 83.467 201.568 83.4971C201.418 83.5272 200.393 83.9187 199.218 84.4006ZM143.357 220.617C143.568 221.038 143.628 221.671 143.507 222.093C143.296 222.996 138.656 228.206 137.903 228.417C137.029 228.658 135.945 227.935 135.854 227.062C135.704 225.917 136.246 225.104 138.867 222.333C140.796 220.316 141.338 219.894 142.121 219.894C142.814 219.894 143.116 220.075 143.357 220.617ZM148.388 222.062C149.202 222.876 148.81 224.291 147.243 226.158C145.616 228.056 144.502 228.748 143.598 228.477C141.971 227.935 142.513 225.707 144.893 223.297C146.49 221.671 147.605 221.279 148.388 222.062Z" fill="#010101"/>
<path d="M64.1139 112.379C52.9657 126.082 44.8908 141.381 41.7874 154.692C39.9193 162.673 39.6482 171.256 41.004 178.484C44.2882 195.741 55.0447 211.461 70.7125 221.852C79.842 227.905 87.706 230.555 94.3647 229.802C97.3778 229.471 99.4568 228.387 100.782 226.399C101.295 225.616 101.747 224.652 101.747 224.321C101.747 223.719 101.747 223.719 101.054 224.351C100.662 224.713 100.029 225.014 99.6677 225.014C98.7035 225.014 94.5154 220.948 94.5154 220.015C94.5154 219.352 95.5097 218.388 96.2027 218.388C96.9258 218.388 100.27 220.888 100.993 221.942C101.686 222.966 101.747 222.996 101.747 222.303C101.717 220.647 100.572 219.081 96.3533 214.925C93.973 212.606 91.1709 209.624 90.0862 208.299C81.6799 197.939 76.8892 185.832 75.8346 172.401C74.8102 159.511 78.8778 144.001 86.6815 130.84L87.6156 129.274L85.5667 127.919C78.9682 123.552 72.6709 117.227 68.8444 111.144L67.2174 108.554L64.1139 112.379ZM93.8525 222.424C96.3533 225.014 96.8354 225.917 96.504 227.273C96.2629 228.176 95.0276 228.778 94.2743 228.357C93.6416 228.025 89.9055 223.9 89.4535 222.996C89.0016 222.153 89.0016 220.707 89.4535 220.255C90.3574 219.352 91.3818 219.834 93.8525 222.424ZM88.5797 224.261C89.3932 225.315 89.9959 226.339 89.9959 226.791C89.9959 227.724 89.1823 228.628 88.3387 228.628C87.5553 228.628 84.482 225.616 83.9397 224.351C83.4877 223.267 83.8191 222.032 84.6628 221.731C85.627 221.34 86.8623 222.153 88.5797 224.261Z" fill="#010101"/>
</g>
<path d="M362.2 193.2C332.2 193.2 311.2 173.4 308.8 144.6L326.8 143.4C329.6 164.6 342.6 176.4 362.6 176.4C382.4 176.4 393.2 168.6 393.2 154.8C393.2 141.2 386.4 133.8 353.4 124.4C323.8 116 312.2 106.4 312.2 85.2C312.2 61.4 330.2 44.8 359.4 44.8C388.6 44.8 405.4 64 408.6 90L390.6 91.2C388.2 74 378.2 61.6 359 61.6C341.4 61.6 330.2 70.8 330.2 84.4C330.2 97.8 337.4 102.4 364.2 110C398.8 119.8 411.2 131.6 411.2 155.2C411.2 177.6 391.2 193.2 362.2 193.2ZM465.922 192.4C445.922 192.4 430.722 180.8 430.722 163.6C430.722 145.6 441.122 136.2 464.322 131.6L499.922 124.4C499.922 106.4 491.522 97.6 476.322 97.6C461.522 97.6 453.722 104.4 450.522 116.6L432.722 115.2C436.722 95.2 452.322 81.6 476.322 81.6C501.922 81.6 516.722 98 516.722 124.8V168.8C516.722 173.6 518.722 175.2 523.122 175.2H529.922V190C528.322 190.2 524.322 190.4 521.122 190.4C509.522 190.4 502.722 185.8 500.522 175C494.722 185.4 481.122 192.4 465.922 192.4ZM467.522 177.6C489.122 177.6 499.922 165.6 499.922 148V138.8L467.522 145.2C453.122 148 448.322 153.2 448.322 162C448.322 172 455.522 177.6 467.522 177.6ZM589.244 190L550.644 84H569.044L599.844 172.8L630.644 84H649.044L610.444 190H589.244ZM705.766 192.4C685.766 192.4 670.566 180.8 670.566 163.6C670.566 145.6 680.966 136.2 704.166 131.6L739.766 124.4C739.766 106.4 731.366 97.6 716.166 97.6C701.366 97.6 693.566 104.4 690.366 116.6L672.566 115.2C676.566 95.2 692.166 81.6 716.166 81.6C741.766 81.6 756.566 98 756.566 124.8V168.8C756.566 173.6 758.566 175.2 762.966 175.2H769.766V190C768.166 190.2 764.166 190.4 760.966 190.4C749.366 190.4 742.566 185.8 740.366 175C734.566 185.4 720.966 192.4 705.766 192.4ZM707.366 177.6C728.966 177.6 739.766 165.6 739.766 148V138.8L707.366 145.2C692.966 148 688.166 153.2 688.166 162C688.166 172 695.366 177.6 707.366 177.6Z" fill="#010101"/>
</g>
<defs>
<clipPath id="clip0_30_18">
<rect width="1600" height="240" fill="white"/>
</clipPath>
<clipPath id="clip1_30_18">
<rect width="212.87" height="220" fill="white" transform="translate(10 10)"/>
</clipPath>
</defs>
</svg>
