<svg width="1600" height="240" viewBox="0 0 1600 240" fill="none" xmlns="http://www.w3.org/2000/svg">
<g clip-path="url(#clip0_30_19)">
<g clip-path="url(#clip1_30_19)">
<path d="M43.384 20.3953C37.7226 21.6547 32.9911 24.3925 28.6972 28.8279C24.7315 32.962 22.2153 37.3152 20.7384 42.6814C20.1094 44.9812 20.0273 45.8299 20 49.4165C20 52.5376 20.1094 53.9613 20.4923 55.3029C22.0786 61.1071 26.4545 65.8984 31.9518 67.8148C33.2919 68.2803 34.8235 68.5814 36.6833 68.691L39.4183 68.8552L37.7226 69.7587C34.4953 71.4288 29.8459 71.5657 26.5092 70.0873C25.8255 69.7861 25.1964 69.5945 25.1417 69.6492C24.9503 69.8409 26.728 73.181 28.1229 75.207C29.7638 77.589 33.8663 81.5862 36.2731 83.1742C40.4849 85.9394 45.3258 87.6643 49.9752 88.0202C51.9991 88.1845 54.6247 87.9928 57.6058 87.4726L58.563 87.281L57.6058 88.1297C55.2264 90.2378 48.7718 92.5103 46.1189 92.1543L44.8882 91.9901L45.654 92.6745C47.842 94.6184 53.0931 97.0003 57.6605 98.1229C60.3134 98.7799 67.8346 99.6287 68.1628 99.3275C68.2448 99.2454 68.1628 98.1502 67.9987 96.8908C67.8619 95.6314 67.7252 93.8792 67.7252 93.0031V91.4151L65.1816 88.2118C58.7545 80.1078 55.8828 75.8368 53.476 70.7717C50.5769 64.6389 48.9359 58.205 49.1821 53.9066C49.4829 48.8963 52.3 45.4466 56.1289 45.4466C57.6605 45.4466 58.8092 46.1037 60.1493 47.719C63.3492 51.6341 66.0568 59.5465 67.5611 69.3754C68.5183 75.4808 68.7918 78.9853 68.9832 86.9251C69.202 97.3836 69.9678 101.655 72.6208 107.213C74.6993 111.566 76.9146 114.687 80.7983 118.657C87.034 125.036 96.497 130.95 105.878 134.372C114.63 137.548 118.513 137.548 127.211 134.29C133.392 131.99 140.557 128.048 145.754 124.105C149.282 121.422 154.041 116.685 156.42 113.482C159.729 109.02 162.601 102.476 163.449 97.3836C163.613 96.4528 163.859 92.346 163.996 88.294C164.297 79.4781 164.652 74.8511 165.391 69.6766C167.141 57.3836 170.615 48.4856 174.58 46.0763C177.261 44.461 181.172 46.1584 182.867 49.7177C185.028 54.153 183.578 62.3391 179.038 71.4562C176.413 76.7402 175.045 78.7936 168.919 86.7882L165.446 91.3056L165.254 94.1804C165.145 95.7683 164.953 97.5205 164.844 98.0955C164.707 98.6704 164.707 99.1632 164.844 99.2728C164.981 99.3549 166.731 99.2728 168.7 99.1359C175.045 98.6157 180.625 96.9456 185.383 94.0982L188.2 92.4008L186.012 92.2091C182.238 91.8532 177.042 89.9093 174.799 87.9928L173.979 87.3084L174.799 87.4452C179.722 88.3487 183.36 88.294 187.571 87.2262C193.752 85.6656 199.605 81.8326 203.762 76.6034C205.868 74.0024 208.439 69.3207 207.591 69.6766C205.267 70.6075 203.762 70.9908 201.711 71.1276C198.922 71.2919 197.089 70.9086 194.764 69.704L193.123 68.8552L196.269 68.691C199.742 68.4993 201.328 68.0339 204.036 66.3912C208.248 63.8723 211.366 59.5192 212.569 54.6184C213.143 52.3186 213.198 47.1988 212.706 44.7621C211.065 36.7402 205.786 29.0469 198.703 24.3652C194.518 21.5999 190.443 20.2858 185.465 20.0667C180.734 19.8751 177.315 20.6964 173.35 23.0236C171.189 24.3104 167.633 27.9517 166.321 30.2515C165.446 31.7574 165.199 32.0311 165.145 31.5383C164.899 29.923 166.676 25.2139 168.673 22.2296L169.274 21.3261L167.661 22.1749C160.441 26.09 156.092 31.0729 154.013 37.9175C153.603 39.2591 153.166 40.628 153.029 40.9292C152.646 41.8326 153.083 37.808 153.603 35.7546C154.068 33.9203 154.068 33.8929 153.548 34.5226C151.196 37.5068 149.391 40.9565 148.543 43.9955C148.27 44.9538 148.024 45.7204 147.969 45.7204C147.942 45.7204 146.984 45.2276 145.863 44.6253C139.956 41.422 131.587 38.9579 123.655 38.0544C119.963 37.6437 111.731 37.7259 108.011 38.1913C100.791 39.1495 94.1176 41.0934 88.5109 43.886C86.6238 44.8169 85.0101 45.6109 84.9008 45.6656C84.764 45.7204 84.682 45.474 84.682 45.0907C84.682 43.4206 82.4119 38.4651 80.3607 35.6451C79.677 34.7142 79.0753 33.9476 79.0479 33.9476C79.0206 33.9476 79.1573 34.4678 79.3488 35.1249C79.5402 35.782 79.7864 37.3973 79.8684 38.7663L80.0599 41.2029L79.13 38.2461C78.6103 36.6307 77.7898 34.4952 77.2702 33.4822C75.3831 29.7313 70.0225 24.6663 65.4278 22.2844C64.0877 21.5726 63.6227 21.4357 63.9236 21.7916C65.5645 23.7355 67.7252 29.2933 67.7252 31.5931C67.7252 32.3323 67.5611 32.168 66.3303 30.1694C63.6227 25.7615 59.8211 22.7225 54.8708 20.9702C52.8196 20.2584 52.1085 20.1489 48.8539 20.0941C46.3377 20.012 44.5873 20.1215 43.384 20.3953ZM99.0405 72.5513C107.464 74.55 113.481 79.9709 115.067 87.0072C115.478 88.8963 115.396 93.9887 114.903 96.6444C114.274 99.9572 113.044 104.119 111.321 108.609C109.16 114.331 109.078 114.468 107.71 114.933C106.316 115.399 105.03 116.603 104.784 117.726C104.483 119.122 105.331 121.449 106.644 122.736C108.832 124.926 111.895 125.939 116.326 125.939C119.088 125.939 121.522 125.447 123.327 124.543C125.898 123.229 128.168 120.19 128.168 118.027C128.168 116.85 126.691 115.371 125.05 114.933L123.901 114.632L122.206 110.087C120.154 104.557 118.732 99.8751 118.158 96.5349C117.611 93.3316 117.611 88.5404 118.185 86.3775C119.772 80.2173 124.695 75.4535 131.997 72.962C135.99 71.5931 140.886 71.4288 143.456 72.5787C146.957 74.1119 150.649 79.0127 152.509 84.5979C153.357 87.0893 153.548 91.771 152.947 94.1804C150.731 102.914 142.308 109.458 134.048 108.855C132.845 108.773 131.587 108.636 131.258 108.527L130.629 108.362L131.067 109.54C131.669 111.21 131.887 115.645 131.45 117.479C129.946 123.913 124.476 127.637 116.544 127.664C113.071 127.664 110.938 127.199 108.011 125.803C102.405 123.174 99.9978 117.124 101.775 110.06C101.994 109.239 102.131 108.527 102.076 108.472C102.022 108.417 101.201 108.527 100.271 108.718C96.8252 109.403 92.3125 108.499 88.8391 106.446C86.8152 105.269 83.4239 101.874 82.1658 99.7929C80.9351 97.7396 79.8684 94.591 79.6223 92.2639C79.2394 88.4035 80.6069 83.0099 82.9589 79.04C84.5179 76.4665 87.3896 73.4001 88.9212 72.6882C91.1912 71.6478 94.9928 71.5931 99.0405 72.5513Z" fill="#FEFEFE"/>
<path d="M92.5586 79.0948C90.3433 79.8066 88.8664 80.7649 87.1981 82.5171C84.4905 85.3918 83.1777 89.6629 83.7794 93.6602C84.9007 100.806 92.4219 106.391 99.3414 105.214C106.179 104.037 110.801 97.7395 109.844 90.9497C108.996 84.8169 105.222 80.4637 99.5328 78.9853C97.4542 78.4377 94.4731 78.4925 92.5586 79.0948ZM104.374 85.8847C105.604 87.0072 105.741 88.3487 104.757 89.4986C103.772 90.6759 102.897 91.0044 101.775 90.6211C100.572 90.2105 99.9704 89.4986 99.8063 88.1844C99.6696 87.1988 99.7516 86.9798 100.627 86.1037C101.858 84.8717 103.143 84.7895 104.374 85.8847Z" fill="#FEFEFE"/>
<path d="M133.282 78.9852C127.156 80.6553 123.245 86.131 123.245 92.9757C123.245 96.7539 124.421 99.5465 127.101 102.12C132.079 106.884 139.819 106.391 145.261 100.888C147.559 98.5883 148.79 96.2337 149.227 93.4137C150.266 86.8429 145.973 80.3268 139.655 78.8757C137.986 78.4924 134.896 78.5472 133.282 78.9852ZM132.38 85.912C132.763 86.3501 133.173 87.144 133.255 87.6642C133.392 88.4582 133.282 88.7867 132.544 89.6081C131.805 90.4842 131.505 90.6211 130.493 90.6211C128.496 90.6211 127.183 88.8141 127.894 87.0345C128.715 85.0907 131.012 84.4883 132.38 85.912Z" fill="#FEFEFE"/>
<path d="M191.756 87.6369C189.841 88.4035 186.149 89.3344 183.551 89.6903C182.211 89.8819 182.211 89.8819 183.004 90.1283C184.043 90.4569 189.267 90.539 191.756 90.2378L193.67 90.0462L192.44 91.1413C189.541 93.7423 184.289 96.9182 180.597 98.2871C176.385 99.8477 171.49 100.751 167.278 100.751H164.379L163.64 103.024C161.617 109.266 157.87 115.07 152.318 120.546C150.048 122.791 144.605 127.199 142.773 128.294C142.308 128.568 142.362 128.732 143.429 130.512C145.398 133.852 147.805 138.807 149.2 142.367C154.396 155.782 154.916 168.431 150.731 181.107C147.696 190.361 143.374 197.151 135.252 205.474C130.739 210.101 129.809 211.306 129.809 212.538C129.809 213.113 129.918 213.058 131.149 211.881C132.517 210.566 134.349 209.444 135.115 209.444C135.689 209.444 136.373 210.21 136.373 210.813C136.373 211.114 135.416 212.264 134.267 213.414C131.915 215.686 131.122 215.96 130.055 214.837L129.481 214.235L129.672 214.92C130.821 218.753 134.787 220.56 140.585 219.848C144.359 219.41 146.984 218.588 150.868 216.672C169.056 207.664 182.703 189.375 185.192 170.594C186.669 159.533 183.989 146.638 177.726 134.837L176.413 132.373L178.573 129.772C181.746 125.939 184.289 121.97 186.559 117.343C190.553 109.211 192.549 102.065 193.67 91.9079C194.135 87.6095 194.163 86.7882 193.889 86.8155C193.752 86.8429 192.823 87.1988 191.756 87.6369ZM141.05 211.47C141.241 211.853 141.296 212.428 141.186 212.811C140.995 213.633 136.783 218.369 136.099 218.561C135.306 218.78 134.322 218.123 134.24 217.329C134.103 216.288 134.595 215.549 136.975 213.03C138.725 211.196 139.217 210.813 139.928 210.813C140.557 210.813 140.831 210.977 141.05 211.47ZM145.617 212.784C146.355 213.523 146 214.81 144.578 216.508C143.101 218.232 142.089 218.862 141.268 218.616C139.792 218.123 140.284 216.097 142.444 213.907C143.894 212.428 144.906 212.072 145.617 212.784Z" fill="#FEFEFE"/>
<path d="M69.12 113.071C59.0006 125.529 51.6709 139.437 48.8539 151.538C47.1582 158.794 46.912 166.596 48.1428 173.167C51.1239 188.855 60.8877 203.147 75.1095 212.592C83.3965 218.095 90.5348 220.505 96.579 219.82C99.314 219.519 101.201 218.534 102.405 216.727C102.869 216.015 103.28 215.139 103.28 214.837C103.28 214.29 103.28 214.29 102.651 214.865C102.295 215.193 101.721 215.467 101.393 215.467C100.517 215.467 96.7158 211.771 96.7158 210.922C96.7158 210.32 97.6183 209.444 98.2474 209.444C98.9037 209.444 101.94 211.716 102.596 212.675C103.225 213.605 103.28 213.633 103.28 213.003C103.252 211.497 102.213 210.074 98.3841 206.295C96.2235 204.187 93.68 201.477 92.6954 200.272C85.0648 190.854 80.7162 179.848 79.759 167.637C78.8291 155.919 82.5213 141.819 89.6049 129.855L90.4527 128.431L88.5929 127.199C82.6034 123.229 76.8873 117.479 73.4139 111.949L71.937 109.594L69.12 113.071ZM96.1141 213.113C98.3841 215.467 98.8217 216.288 98.5209 217.521C98.3021 218.342 97.1807 218.889 96.497 218.506C95.9226 218.205 92.5313 214.454 92.121 213.633C91.7108 212.866 91.7108 211.552 92.121 211.141C92.9415 210.32 93.8714 210.758 96.1141 213.113ZM91.3279 214.783C92.0663 215.741 92.6133 216.672 92.6133 217.082C92.6133 217.931 91.8749 218.753 91.1091 218.753C90.398 218.753 87.6083 216.015 87.116 214.865C86.7058 213.879 87.0066 212.757 87.7724 212.483C88.6476 212.127 89.769 212.866 91.3279 214.783Z" fill="#FEFEFE"/>
</g>
<path d="M362.2 193.2C332.2 193.2 311.2 173.4 308.8 144.6L326.8 143.4C329.6 164.6 342.6 176.4 362.6 176.4C382.4 176.4 393.2 168.6 393.2 154.8C393.2 141.2 386.4 133.8 353.4 124.4C323.8 116 312.2 106.4 312.2 85.2C312.2 61.4 330.2 44.8 359.4 44.8C388.6 44.8 405.4 64 408.6 90L390.6 91.2C388.2 74 378.2 61.6 359 61.6C341.4 61.6 330.2 70.8 330.2 84.4C330.2 97.8 337.4 102.4 364.2 110C398.8 119.8 411.2 131.6 411.2 155.2C411.2 177.6 391.2 193.2 362.2 193.2ZM465.922 192.4C445.922 192.4 430.722 180.8 430.722 163.6C430.722 145.6 441.122 136.2 464.322 131.6L499.922 124.4C499.922 106.4 491.522 97.6 476.322 97.6C461.522 97.6 453.722 104.4 450.522 116.6L432.722 115.2C436.722 95.2 452.322 81.6 476.322 81.6C501.922 81.6 516.722 98 516.722 124.8V168.8C516.722 173.6 518.722 175.2 523.122 175.2H529.922V190C528.322 190.2 524.322 190.4 521.122 190.4C509.522 190.4 502.722 185.8 500.522 175C494.722 185.4 481.122 192.4 465.922 192.4ZM467.522 177.6C489.122 177.6 499.922 165.6 499.922 148V138.8L467.522 145.2C453.122 148 448.322 153.2 448.322 162C448.322 172 455.522 177.6 467.522 177.6ZM589.244 190L550.644 84H569.044L599.844 172.8L630.644 84H649.044L610.444 190H589.244ZM705.766 192.4C685.766 192.4 670.566 180.8 670.566 163.6C670.566 145.6 680.966 136.2 704.166 131.6L739.766 124.4C739.766 106.4 731.366 97.6 716.166 97.6C701.366 97.6 693.566 104.4 690.366 116.6L672.566 115.2C676.566 95.2 692.166 81.6 716.166 81.6C741.766 81.6 756.566 98 756.566 124.8V168.8C756.566 173.6 758.566 175.2 762.966 175.2H769.766V190C768.166 190.2 764.166 190.4 760.966 190.4C749.366 190.4 742.566 185.8 740.366 175C734.566 185.4 720.966 192.4 705.766 192.4ZM707.366 177.6C728.966 177.6 739.766 165.6 739.766 148V138.8L707.366 145.2C692.966 148 688.166 153.2 688.166 162C688.166 172 695.366 177.6 707.366 177.6Z" fill="#FEFEFE"/>
</g>
<defs>
<clipPath id="clip0_30_19">
<rect width="1600" height="240" fill="white"/>
</clipPath>
<clipPath id="clip1_30_19">
<rect width="193.225" height="200" fill="white" transform="translate(20 20)"/>
</clipPath>
</defs>
</svg>
