<svg width="2100" height="960" viewBox="0 0 2100 960" fill="none" xmlns="http://www.w3.org/2000/svg">
<path d="M1324.56 799.407C1324.56 799.407 1350.11 820.445 1296.01 836.975C1195.32 867.028 873.735 876.046 783.57 836.975C752.013 823.45 812.123 803.914 831.658 800.909C851.194 796.402 861.712 796.402 861.712 796.402C827.151 772.356 631.793 845.99 762.531 867.028C1121.69 925.637 1417.73 841.482 1324.56 799.407ZM965.405 927.14C1127.7 937.66 1375.65 921.127 1381.66 844.487C1381.66 844.487 1369.64 874.543 1247.92 897.084C1109.67 922.632 938.357 919.624 837.671 903.094C837.671 903.094 858.709 921.127 965.405 927.14Z" fill="url(#paint0_linear_31_93)"/>
<path d="M932.346 725.772C932.346 725.772 897.782 746.81 956.39 752.82C1027.02 761.835 1064.59 760.335 1142.73 745.307C1142.73 745.307 1163.77 758.83 1192.32 769.35C1016.5 844.487 794.093 764.84 932.346 725.772ZM909.804 628.092C909.804 628.092 872.236 656.645 930.843 662.655C1007.48 670.171 1067.59 671.67 1171.28 650.632C1171.28 650.632 1184.81 665.66 1207.35 673.176C995.461 736.29 758.025 679.186 909.804 628.092ZM948.875 525.907C948.875 525.907 785.077 564.978 890.269 578.501C935.351 584.511 1024.01 583.011 1106.66 576.998C1174.29 570.988 1241.91 558.965 1241.91 558.965C1241.91 558.965 1217.87 569.486 1201.34 580.006C1034.53 623.584 714.448 604.049 806.115 558.965C884.257 521.397 948.875 525.907 948.875 525.907ZM1241.91 689.703C1410.22 602.546 1332.08 518.392 1277.98 528.912C1264.45 531.917 1258.44 534.922 1258.44 534.922C1258.44 534.922 1262.95 525.907 1273.47 522.902C1380.17 485.331 1464.32 635.604 1238.91 694.214C1238.91 694.214 1240.41 692.711 1241.91 689.703Z" fill="url(#paint1_linear_31_93)"/>
<path d="M1139.72 30C1139.72 30 1232.89 124.673 1051.06 267.434C905.292 383.143 1018 449.265 1051.06 524.402C965.402 447.763 903.79 380.138 945.866 317.024C1007.48 223.853 1177.29 178.772 1139.72 30ZM1091.63 461.288C1135.21 510.879 1079.61 555.963 1079.61 555.963C1079.61 555.963 1190.81 498.856 1139.72 428.227C1093.14 360.606 1057.07 327.545 1252.43 214.838C1252.43 214.838 944.364 291.478 1091.63 461.288Z" fill="url(#paint2_linear_31_93)"/>
<defs>
<linearGradient id="paint0_linear_31_93" x1="1380.95" y1="930.344" x2="-127.339" y2="1066.41" gradientUnits="userSpaceOnUse">
<stop offset="0.153256" stop-color="#4E7896"/>
<stop offset="1" stop-color="#14F195"/>
</linearGradient>
<linearGradient id="paint1_linear_31_93" x1="328.624" y1="429.51" x2="1145.01" y2="813.097" gradientUnits="userSpaceOnUse">
<stop offset="0.176884" stop-color="#9945FF"/>
<stop offset="0.632245" stop-color="#14F195"/>
<stop offset="0.905" stop-color="#4E7896"/>
</linearGradient>
<linearGradient id="paint2_linear_31_93" x1="1092.37" y1="30" x2="942.359" y2="588.734" gradientUnits="userSpaceOnUse">
<stop offset="0.21" stop-color="#F58219"/>
<stop offset="0.65" stop-color="#9945FF"/>
<stop offset="1" stop-color="#14F195"/>
</linearGradient>
</defs>
</svg>
